<svg id="visual" viewBox="0 0 900 600" width="900" height="600" xmlns="http://www.w3.org/2000/svg" xmlns:xlink="http://www.w3.org/1999/xlink" version="1.1"><rect x="0" y="0" width="900" height="600" fill="#3c415c"></rect><path d="M0 402L129 366L257 386L386 445L514 423L643 413L771 363L900 394L900 601L771 601L643 601L514 601L386 601L257 601L129 601L0 601Z" fill="#525879"></path><path d="M0 420L129 420L257 420L386 440L514 422L643 453L771 394L900 403L900 601L771 601L643 601L514 601L386 601L257 601L129 601L0 601Z" fill="#454d6e"></path><path d="M0 476L129 461L257 454L386 437L514 456L643 464L771 472L900 489L900 601L771 601L643 601L514 601L386 601L257 601L129 601L0 601Z" fill="#384264"></path><path d="M0 513L129 528L257 486L386 518L514 487L643 503L771 517L900 517L900 601L771 601L643 601L514 601L386 601L257 601L129 601L0 601Z" fill="#2b375a"></path><path d="M0 529L129 548L257 567L386 566L514 549L643 530L771 545L900 552L900 601L771 601L643 601L514 601L386 601L257 601L129 601L0 601Z" fill="#1d2d50"></path></svg>