<svg id="visual" viewBox="0 0 900 600" width="900" height="600" xmlns="http://www.w3.org/2000/svg" xmlns:xlink="http://www.w3.org/1999/xlink" version="1.1"><rect x="0" y="0" width="900" height="600" fill="#1d2d50"></rect><path d="M0 349L129 433L257 394L386 355L514 396L643 381L771 380L900 434L900 601L771 601L643 601L514 601L386 601L257 601L129 601L0 601Z" fill="#1a2743"></path><path d="M0 427L129 459L257 403L386 479L514 433L643 450L771 466L900 442L900 601L771 601L643 601L514 601L386 601L257 601L129 601L0 601Z" fill="#192c4a"></path><path d="M0 493L129 483L257 476L386 483L514 502L643 460L771 467L900 478L900 601L771 601L643 601L514 601L386 601L257 601L129 601L0 601Z" fill="#183150"></path><path d="M0 493L129 484L257 483L386 501L514 530L643 512L771 538L900 512L900 601L771 601L643 601L514 601L386 601L257 601L129 601L0 601Z" fill="#163656"></path><path d="M0 543L129 555L257 542L386 552L514 574L643 528L771 540L900 539L900 601L771 601L643 601L514 601L386 601L257 601L129 601L0 601Z" fill="#133b5c"></path></svg>