<svg id="visual" viewBox="0 0 900 600" width="900" height="600" xmlns="http://www.w3.org/2000/svg" xmlns:xlink="http://www.w3.org/1999/xlink" version="1.1"><rect x="0" y="0" width="900" height="600" fill="#1D2D50"></rect><path d="M0 423L129 355L257 358L386 378L514 418L643 356L771 415L900 442L900 601L771 601L643 601L514 601L386 601L257 601L129 601L0 601Z" fill="#495a7f"></path><path d="M0 417L129 415L257 452L386 403L514 446L643 410L771 444L900 402L900 601L771 601L643 601L514 601L386 601L257 601L129 601L0 601Z" fill="#8b7194"></path><path d="M0 506L129 464L257 450L386 473L514 443L643 474L771 441L900 486L900 601L771 601L643 601L514 601L386 601L257 601L129 601L0 601Z" fill="#c18c9e"></path><path d="M0 537L129 505L257 530L386 514L514 523L643 490L771 485L900 510L900 601L771 601L643 601L514 601L386 601L257 601L129 601L0 601Z" fill="#e7b0a6"></path><path d="M0 565L129 568L257 527L386 557L514 552L643 555L771 529L900 568L900 601L771 601L643 601L514 601L386 601L257 601L129 601L0 601Z" fill="#fcdab7"></path></svg>